<?xml version="1.0" encoding="UTF-8" standalone="no"?>
<!-- Created with Inkscape (http://www.inkscape.org/) -->

<svg
   width="127.28361mm"
   height="7.2686782mm"
   viewBox="0 0 127.28361 7.2686782"
   version="1.1"
   id="svg1"
   sodipodi:docname="Glyphs.svg"
   inkscape:version="1.3 (0e150ed, 2023-07-21)"
   xmlns:inkscape="http://www.inkscape.org/namespaces/inkscape"
   xmlns:sodipodi="http://sodipodi.sourceforge.net/DTD/sodipodi-0.dtd"
   xmlns="http://www.w3.org/2000/svg"
   xmlns:svg="http://www.w3.org/2000/svg">
  <sodipodi:namedview
     id="namedview1"
     pagecolor="#ffffff"
     bordercolor="#666666"
     borderopacity="1.0"
     inkscape:showpageshadow="2"
     inkscape:pageopacity="0.0"
     inkscape:pagecheckerboard="0"
     inkscape:deskcolor="#d1d1d1"
     inkscape:document-units="mm"
     inkscape:zoom="0.80533109"
     inkscape:cx="165.77033"
     inkscape:cy="38.493485"
     inkscape:window-width="2016"
     inkscape:window-height="1027"
     inkscape:window-x="40"
     inkscape:window-y="25"
     inkscape:window-maximized="0"
     inkscape:current-layer="layer1" />
  <defs
     id="defs1" />
  <g
     inkscape:label="Ebene 1"
     inkscape:groupmode="layer"
     id="layer1"
     transform="translate(-12.382277,-35.572789)">
    <g
       inkscape:label="Hershey Text"
       style="fill:none;stroke:#000000;stroke-linecap:round;stroke-linejoin:round"
       id="g58">
      <g
         transform="translate(10.5133,42.7102)"
         id="g57">
        <path
           d="m 630,567 -63,63 -95,32 H 346 l -94,-32 -63,-63 v -63 l 31,-63 32,-31 63,-32 189,-63 63,-31 31,-32 32,-63 V 94.5 L 567,31.5 472,0 H 346 l -94,31.5 -63,63"
           style="stroke-width:0.2584in"
           transform="scale(0.0105833,-0.0105833)"
           id="path40" />
        <path
           d="M 346,662 V 0 M 126,662 h 441"
           style="stroke-width:0.2584in"
           transform="matrix(0.0105833,0,0,-0.0105833,6.66748,0)"
           id="path41" />
        <path
           d="M 378,662 315,630 252,567 220,504 189,410 V 252 l 31,-94 32,-63.5 63,-63 L 378,0 h 126 l 63,31.5 63,63 32,63.5 31,94 v 158 l -31,94 -32,63 -63,63 -63,32 H 378"
           style="stroke-width:0.2584in"
           transform="matrix(0.0105833,0,0,-0.0105833,12.0015,0)"
           id="path42" />
        <path
           d="M 220,662 V 0 m 0,662 h 284 l 94,-32 32,-32 32,-62 V 441 L 630,378 598,346 504,315 H 220"
           style="stroke-width:0.2584in"
           transform="matrix(0.0105833,0,0,-0.0105833,19.3357,0)"
           id="path43" />
        <path
           d="M 378,662 126,0 M 378,662 630,0 M 220,220 h 316"
           style="stroke-width:0.2584in"
           transform="matrix(0.0105833,0,0,-0.0105833,26.3418,0)"
           id="path44" />
        <path
           d="M 220,662 V 0 m 0,662 h 284 l 94,-32 32,-32 32,-62 V 472 L 630,410 598,378 504,346 H 220 M 441,346 662,0"
           style="stroke-width:0.2584in"
           transform="matrix(0.0105833,0,0,-0.0105833,32.3426,0)"
           id="path45" />
        <path
           d="m 284,536 62,31 95,95 V 0"
           style="stroke-width:0.2584in"
           transform="matrix(0.0105833,0,0,-0.0105833,39.3487,0)"
           id="path46" />
        <path
           d="m 220,504 v 32 l 32,62 32,32 62,32 h 126 l 64,-32 31,-32 31,-62 V 472 L 567,410 504,315 189,0 h 441"
           style="stroke-width:0.2584in"
           transform="matrix(0.0105833,0,0,-0.0105833,46.0162,0)"
           id="path47" />
        <path
           d="M 252,662 H 598 L 410,410 h 94 l 63,-32 31,-32 32,-94 V 189 L 598,94.5 536,31.5 441,0 H 346 L 252,31.5 220,63 189,126"
           style="stroke-width:0.2584in"
           transform="matrix(0.0105833,0,0,-0.0105833,52.6837,0)"
           id="path48" />
        <path
           d="M 504,662 189,220 H 662 M 504,662 V 0"
           style="stroke-width:0.2584in"
           transform="matrix(0.0105833,0,0,-0.0105833,59.3511,0)"
           id="path49" />
        <path
           d="M 567,662 H 252 l -32,-284 32,32 94,31 h 95 l 95,-31 62,-64 32,-94 V 189 L 598,94.5 536,31.5 441,0 H 346 L 252,31.5 220,63 189,126"
           style="stroke-width:0.2584in"
           transform="matrix(0.0105833,0,0,-0.0105833,66.0186,0)"
           id="path50" />
        <path
           d="m 598,567 -31,63 -95,32 H 410 L 315,630 252,536 220,378 V 220 L 252,94.5 315,31.5 410,0 h 31 l 95,31.5 62,63 32,94.5 v 31 l -32,95 -62,63 -95,32 h -31 l -95,-32 -63,-63 -32,-95"
           style="stroke-width:0.2584in"
           transform="matrix(0.0105833,0,0,-0.0105833,72.6861,0)"
           id="path51" />
        <path
           d="M 630,662 315,0 M 189,662 h 441"
           style="stroke-width:0.2584in"
           transform="matrix(0.0105833,0,0,-0.0105833,79.3536,0)"
           id="path52" />
        <path
           d="m 346,662 -94,-32 -32,-63 v -63 l 32,-63 63,-31 126,-32 95,-32 62,-62 32,-64 V 126 L 598,63 567,31.5 472,0 H 346 L 252,31.5 220,63 189,126 v 94 l 31,64 64,62 94,32 126,32 63,31 31,63 v 63 l -31,63 -95,32 H 346"
           style="stroke-width:0.2584in"
           transform="matrix(0.0105833,0,0,-0.0105833,86.0211,0)"
           id="path53" />
        <path
           d="m 598,441 -31,-95 -63,-62 -94,-32 h -32 l -94,32 -64,62 -31,95 v 31 l 31,95 64,63 94,32 h 32 l 94,-32 63,-63 31,-126 V 284 L 567,126 504,31.5 410,0 h -64 l -94,31.5 -32,63"
           style="stroke-width:0.2584in"
           transform="matrix(0.0105833,0,0,-0.0105833,92.6885,0)"
           id="path54" />
        <path
           d="M 378,662 284,630 220,536 189,378 V 284 L 220,126 284,31.5 378,0 h 63 l 95,31.5 62,94.5 32,158 v 94 l -32,158 -62,94 -95,32 h -63"
           style="stroke-width:0.2584in"
           transform="matrix(0.0105833,0,0,-0.0105833,99.356,0)"
           id="path55" />
        <path
           d="M 220,441 V 0 m 0,315 95,95 63,31 h 94 l 64,-31 31,-95 V 0 m 0,315 95,95 62,31 h 95 l 63,-31 32,-95 V 0"
           style="stroke-width:0.2584in"
           transform="matrix(0.0105833,0,0,-0.0105833,110.024,0)"
           id="path56" />
        <path
           d="M 220,662 V 441 M 472,662 V 441"
           style="stroke-width:0.2584in"
           transform="matrix(0.0105833,0,0,-0.0105833,124.026,0)"
           id="path57" />
      </g>
    </g>
  </g>
</svg>
