<?xml version="1.0" encoding="UTF-8" standalone="no"?>
<svg
   version="1.1"
   width="6cm"
   height="6cm"
   viewBox="0 0 6 6"
   x="0px"
   y="0px"
   id="corner"
   enable-background="new 0 0 6 6"
   xml:space="preserve"
   sodipodi:docname="ShaperCorner_R20mm.svg"
   inkscape:version="1.3 (0e150ed, 2023-07-21)"
   xmlns:inkscape="http://www.inkscape.org/namespaces/inkscape"
   xmlns:sodipodi="http://sodipodi.sourceforge.net/DTD/sodipodi-0.dtd"
   xmlns:xlink="http://www.w3.org/1999/xlink"
   xmlns="http://www.w3.org/2000/svg"
   xmlns:svg="http://www.w3.org/2000/svg"><sodipodi:namedview
     id="namedview6"
     pagecolor="#ffffff"
     bordercolor="#666666"
     borderopacity="1.0"
     inkscape:showpageshadow="2"
     inkscape:pageopacity="0.0"
     inkscape:pagecheckerboard="0"
     inkscape:deskcolor="#d1d1d1"
     inkscape:document-units="cm"
     inkscape:zoom="2.778125"
     inkscape:cx="120.40495"
     inkscape:cy="90.888639"
     inkscape:window-width="1904"
     inkscape:window-height="1006"
     inkscape:window-x="201"
     inkscape:window-y="39"
     inkscape:window-maximized="0"
     inkscape:current-layer="layer3" /><defs
     id="definitions"><color-profile
       name="Display"
       xlink:href="file:///Library/ColorSync/Profiles/Displays/*191*-809E8C81-17DD-05C3-826D-F7533F93BBB8.icc"
       id="color-profile1" /><path
       d="M 2.37 12.1 L 3 11.47 L 3.32 10.52 V 9.26 L 3 8.32 L 2.37 7.69 H 1.74 L 1.11 8 L 0.8 8.32 L 0.48 8.95 L -0.15 10.84 L -0.46 11.47 L -0.78 11.78 L -1.41 12.1 H -2.355 L -2.985 11.47 L -3.3 10.52 V 9.26 L -2.985 8.32 L -2.355 7.69 M -3.3 4.99 H 3.32 M -3.3 7.19 V 2.78 M -3.22 0.92 L 3.4 3.44 M -3.22 0.92 L 3.4 -1.6 M 1.2 2.5 V -0.66 M -3.22 -2.5 H 3.4 M -3.22 -2.5 V -5.34 L -2.9 -6.28 L -2.58 -6.6 L -1.96 -6.92 H -1.32 L -0.7 -6.6 L -0.38 -6.28 L -0.06 -5.34 V -2.5 M -0.06 -4.71 L 3.4 -6.92 M -3.3 -9.81 H 3.32 M -3.3 -7.61 V -12.02"
       fill="none"
       stroke-miterlimit="10"
       stroke-linejoin="round"
       stroke-linecap="round"
       stroke-width="2.5"
       stroke="#0000ff"
       id="startLabel"
       vector-effect="non-scaling-stroke" /><path
       d="m -5.13 -2.37 l -0.63 -0.63 l -0.95 -0.32 H -7.97 l -0.94 0.32 l -0.63 0.63 v 0.63 l 0.31 0.63 l 0.32 0.31 l 0.63 0.32 l 1.89 0.63 l 0.63 0.31 l 0.31 0.32 l 0.32 0.63 V 2.355 L -5.76 2.985 L -6.71 3.3 H -7.97 l -0.94 -0.315 l -0.63 -0.63 M -2.67 -3.32 V 3.3 M -4.87 -3.32 h 4.41 M 1.45 -3.32 L 0.82 -3 L 0.19 -2.37 L -0.13 -1.74 L -0.44 -0.8 V 0.78 l 0.31 0.94 l 0.32 0.635 l 0.63 0.63 L 1.45 3.3 h 1.26 l 0.63 -0.315 l 0.63 -0.63 l 0.32 -0.635 l 0.31 -0.94 v -1.58 l -0.31 -0.94 l -0.32 -0.63 l -0.63 -0.63 l -0.63 -0.32 H 1.45 M 5.07 -3.32 V 3.3 m 0 -6.62 h 2.84 l 0.94 0.32 l 0.32 0.32 l 0.32 0.62 V -1.11 L 9.17 -0.48 L 8.85 -0.16 L 7.91 0.15 H 5.07"
       fill="none"
       stroke-miterlimit="10"
       stroke-linejoin="round"
       stroke-linecap="round"
       stroke-width="2.5"
       stroke="#0000ff"
       id="stopLabel"
       vector-effect="non-scaling-stroke" /><path
       d="M -2.25 -3.32 V 3.3 m 0 -6.62 h 2.84 l 0.94 0.32 l 0.32 0.32 l 0.32 0.62 V -1.42 L 1.85 -0.8 L 1.53 -0.48 L 0.59 -0.16 H -2.25 M -0.04 -0.16 L 2.17 3.3"
       fill="none"
       stroke-miterlimit="10"
       stroke-linejoin="round"
       stroke-linecap="round"
       stroke-width="2.5"
       stroke="#0000ff"
       id="rLabel"
       vector-effect="non-scaling-stroke" /><path
       d="M 0.05 -0.975 L -0.05 0.975"
       fill="none"
       stroke-miterlimit="10"
       stroke-linejoin="round"
       stroke-linecap="round"
       stroke-width="2.5"
       stroke="#0000ff"
       id="collonLabel"
       vector-effect="non-scaling-stroke" /><path
       d="M -5.96 -1.768 V 1.76 m 0 -2.52 l 0.76 -0.76 l 0.504 -0.248 h 0.752 l 0.512 0.248 l 0.248 0.76 V 1.76 m 0 -2.52 l 0.76 -0.76 l 0.496 -0.248 h 0.76 l 0.504 0.248 l 0.256 0.76 V 1.76M 0.44 -1.768 V 1.76 m 0 -2.52 l 0.76 -0.76 l 0.504 -0.248 h 0.752 l 0.512 0.248 l 0.248 0.76 V 1.76 m 0 -2.52 l 0.76 -0.76 l 0.496 -0.248 h 0.76 l 0.504 0.248 l 0.256 0.76 V 1.76"
       fill="none"
       stroke-miterlimit="10"
       stroke-linejoin="round"
       stroke-linecap="round"
       stroke-width="2.5"
       stroke="#0000ff"
       id="mmLabel"
       vector-effect="non-scaling-stroke" /><path
       d="M -0.6 -1 V 1 M 0.6 -1 V 1"
       fill="none"
       stroke-miterlimit="10"
       stroke-linejoin="round"
       stroke-linecap="round"
       stroke-width="2.5"
       stroke="#0000ff"
       id="inchLabel"
       vector-effect="non-scaling-stroke" /><path
       d="M -0.32 -3.32 L -1.26 -3 L -1.9 -2.06 L -2.21 -0.48 V 0.46 L -1.9 2.04 L -1.26 2.985 L -0.32 3.3 h 0.63 l 0.95 -0.315 l 0.62 -0.945 l 0.32 -1.58 v -0.94 l -0.32 -1.58 l -0.62 -0.94 l -0.95 -0.32 h -0.63 M  1 -2.5 l -2 4.9"
       fill="none"
       stroke-miterlimit="10"
       stroke-linejoin="round"
       stroke-linecap="round"
       stroke-width="2.5"
       stroke="#0000ff"
       id="zeroLabel"
       vector-effect="non-scaling-stroke" /><path
       d="m -0.81 -2.06 l 0.62 -0.31 l 0.95 -0.95 V 3.3"
       fill="none"
       stroke-miterlimit="10"
       stroke-linejoin="round"
       stroke-linecap="round"
       stroke-width="2.5"
       stroke="#0000ff"
       id="oneLabel"
       vector-effect="non-scaling-stroke" /><path
       d="m -1.9 -1.74 v -0.32 l 0.32 -0.62 l 0.32 -0.32 l 0.62 -0.32 h 1.26 l 0.64 0.32 l 0.31 0.32 l 0.31 0.62 V -1.42 L 1.57 -0.8 L 0.94 0.15 L -2.21 3.3 h 4.41"
       fill="none"
       stroke-miterlimit="10"
       stroke-linejoin="round"
       stroke-linecap="round"
       stroke-width="2.5"
       stroke="#0000ff"
       id="twoLabel"
       vector-effect="non-scaling-stroke" /><path
       d="M -1.58 -3.32 H 1.88 L -0 -0.8 h 0.94 l 0.63 0.32 l 0.31 0.32 l 0.32 0.94 V 1.41 L 1.88 2.355 L 1.26 2.985 L 0.31 3.3 H -0.64 L -1.58 2.985 L -1.9 2.67 L -2.21 2.04"
       fill="none"
       stroke-miterlimit="10"
       stroke-linejoin="round"
       stroke-linecap="round"
       stroke-width="2.5"
       stroke="#0000ff"
       id="threeLabel"
       vector-effect="non-scaling-stroke" /><path
       d="M 0.74 -3.32 L -2.41 1.1 H 2.32 M 0.74 -3.32 V 3.3"
       fill="none"
       stroke-miterlimit="10"
       stroke-linejoin="round"
       stroke-linecap="round"
       stroke-width="2.5"
       stroke="#0000ff"
       id="fourLabel"
       vector-effect="non-scaling-stroke" /><path
       d="M 1.57 -3.32 H -1.58 l -0.32 2.84 l 0.32 -0.32 l 0.94 -0.31 h 0.95 l 0.95 0.31 l 0.62 0.64 l 0.32 0.94 V 1.41 L 1.88 2.355 L 1.26 2.985 L 0.31 3.3 H -0.64 L -1.58 2.985 L -1.9 2.67 L -2.21 2.04"
       fill="none"
       stroke-miterlimit="10"
       stroke-linejoin="round"
       stroke-linecap="round"
       stroke-width="2.5"
       stroke="#0000ff"
       id="fiveLabel"
       vector-effect="non-scaling-stroke" /><path
       d="m 1.73 -2.37 l -0.31 -0.63 l -0.95 -0.32 H -0.15 L -1.1 -3 L -1.73 -2.06 L -2.05 -0.48 V 1.1 L -1.73 2.355 L -1.1 2.985 L -0.15 3.3 h 0.31 l 0.95 -0.315 l 0.62 -0.63 l 0.32 -0.945 v -0.31 l -0.32 -0.95 l -0.62 -0.63 l -0.95 -0.32 h -0.31 l -0.95 0.32 l -0.63 0.63 l -0.32 0.95"
       fill="none"
       stroke-miterlimit="10"
       stroke-linejoin="round"
       stroke-linecap="round"
       stroke-width="2.5"
       stroke="#0000ff"
       id="sixLabel"
       vector-effect="non-scaling-stroke" /><path
       d="M 2.2 -3.32 L -0.95 3.3 M -2.21 -3.32 h 4.41"
       fill="none"
       stroke-miterlimit="10"
       stroke-linejoin="round"
       stroke-linecap="round"
       stroke-width="2.5"
       stroke="#0000ff"
       id="sevenLabel"
       vector-effect="non-scaling-stroke" /><path
       d="m -0.64 -3.32 l -0.94 0.32 l -0.32 0.63 v 0.63 l 0.32 0.63 l 0.63 0.31 l 1.26 0.32 l 0.95 0.32 l 0.62 0.62 l 0.32 0.64 V 2.04 L 1.88 2.67 L 1.57 2.985 L 0.62 3.3 H -0.64 L -1.58 2.985 L -1.9 2.67 L -2.21 2.04 v -0.94 l 0.31 -0.64 l 0.64 -0.62 l 0.94 -0.32 l 1.26 -0.32 l 0.63 -0.31 l 0.31 -0.63 v -0.63 l -0.31 -0.63 l -0.95 -0.32 H -0.64"
       fill="none"
       stroke-miterlimit="10"
       stroke-linejoin="round"
       stroke-linecap="round"
       stroke-width="2.5"
       stroke="#0000ff"
       id="eightLabel"
       vector-effect="non-scaling-stroke" /><path
       d="m 2.03 -1.11 l -0.31 0.95 l -0.63 0.62 l -0.94 0.32 h -0.32 l -0.94 -0.32 l -0.64 -0.62 l -0.31 -0.95 v -0.31 l 0.31 -0.95 l 0.64 -0.63 l 0.94 -0.32 h 0.32 l 0.94 0.32 l 0.63 0.63 l 0.31 1.26 V 0.46 L 1.72 2.04 L 1.09 2.985 L 0.15 3.3 h -0.64 l -0.94 -0.315 l -0.32 -0.63"
       fill="none"
       stroke-miterlimit="10"
       stroke-linejoin="round"
       stroke-linecap="round"
       stroke-width="2.5"
       stroke="#0000ff"
       id="nineLabel"
       vector-effect="non-scaling-stroke" /></defs><g
     inkscape:groupmode="layer"
     id="layer3"
     inkscape:label="Layer 1"><rect
       style="fill:#ffffff;stroke:none;stroke-width:0;stroke-linecap:round;fill-opacity:1"
       id="rect7"
       width="6.0095229"
       height="6.0095229"
       x="0.0095238211"
       y="0.0095238118" /></g><g
     id="groupShape"
     style="display:inline"><path
       d="M 0,0 H 4.2 V 1 A 2,2 0 0 0 4,1.75 V 2 A 2,2 0 0 1 2,4 H 1.75 A 2,2 0 0 0 1,4.2 H 0 Z"
       fill="#000000"
       stroke-miterlimit="10"
       stroke-linejoin="round"
       stroke-linecap="round"
       stroke-width="0"
       stroke="#000000"
       id="pathShape" /></g><g
     id="groupBorder"
     style="display:inline"><path
       d="M 4,0 V 6 M 0,4 h 6"
       stroke-miterlimit="10"
       stroke-linejoin="round"
       stroke-linecap="round"
       stroke-width="0.4%"
       stroke="#0000ff"
       id="pathEdgeMark" /></g><g
     id="groupStartStop"
     style="display:inline"><path
       d="M 3.6,1 H 6 M 1,3.6 V 6"
       stroke-linejoin="round"
       stroke-linecap="round"
       stroke-width="0.4%"
       stroke="#0000ff"
       id="pathStartStopMark" /><use
       xlink:href="#startLabel"
       transform="matrix(0.072,0,0,0.072,0.04639996,0.03711996)"
       x="18"
       y="70"
       id="use1" /><use
       xlink:href="#stopLabel"
       transform="matrix(0.072,0,0,0.072,-0.02320053,-0.00927999)"
       x="69"
       y="20"
       id="use2" /><use
       xlink:href="#rLabel"
       transform="matrix(0.072,0,0,0.072,-0.03711996,-0.00927999)"
       x="5"
       y="8"
       id="use3" /></g><g
     id="groupRadius"
     style="display:inline"><path
       d="M 2,2.4 V 1.6 M 2.4,2 H 1.6 m 0.4,0 1.4142136,1.4142136 -0.24,-0.12 0.124,-0.124 0.112,0.24"
       stroke-miterlimit="10"
       stroke-linejoin="round"
       stroke-linecap="round"
       stroke-width="0.4%"
       stroke="#0000ff"
       id="pathCross" /><use
       xlink:href="#twoLabel"
       transform="matrix(0.072,0,0,0.072,-0.00464011,-0.00927977)"
       x="12"
       y="8"
       id="use4" /><use
       xlink:href="#zeroLabel"
       transform="matrix(0.072,0,0,0.072,-0.00464011,-0.00927999)"
       x="17"
       y="8"
       id="use5" /><use
       xlink:href="#mmLabel"
       transform="matrix(0.072,0,0,0.072,0.01484781,-0.00371206)"
       x="27.200001"
       y="9.5"
       id="use6" /></g><g
     id="groupRef"
     style="display:inline"><path
       d="M 4,4 H 4.2 L 4,3.6 Z"
       fill="#ff0000"
       stroke-miterlimit="10"
       stroke-linejoin="round"
       stroke-linecap="round"
       stroke-width="0"
       stroke="#ff0000"
       id="pathRefMark" /></g><g
     id="groupDebug"
     style="display:inline" /></svg>
