<?xml version="1.0" encoding="UTF-8"?><svg xmlns="http://www.w3.org/2000/svg" version="1.1" xmlns:xlink="http://www.w3.org/1999/xlink" xmlns:svgjs="http://svgjs.dev/svgjs" width="6cm" height="6cm" viewBox="0 0 6 6" x="0px" y="0px" id="corner" xmlns:svg="http://www.w3.org/2000/svg" xmlns:shaper="http://www.shapertools.com/namespaces/shaper" enable-background="new 0 0 6 6" xml:space="preserve"><defs id="definitions"><path d="M 2.37 12.1 L 3 11.47 L 3.32 10.52 V 9.26 L 3 8.32 L 2.37 7.69 H 1.74 L 1.11 8 L 0.8 8.32 L 0.48 8.95 L -0.15 10.84 L -0.46 11.47 L -0.78 11.78 L -1.41 12.1 H -2.355 L -2.985 11.47 L -3.3 10.52 V 9.26 L -2.985 8.32 L -2.355 7.69 M -3.3 4.99 H 3.32 M -3.3 7.19 V 2.78 M -3.22 0.92 L 3.4 3.44 M -3.22 0.92 L 3.4 -1.6 M 1.2 2.5 V -0.66 M -3.22 -2.5 H 3.4 M -3.22 -2.5 V -5.34 L -2.9 -6.28 L -2.58 -6.6 L -1.96 -6.92 H -1.32 L -0.7 -6.6 L -0.38 -6.28 L -0.06 -5.34 V -2.5 M -0.06 -4.71 L 3.4 -6.92 M -3.3 -9.81 H 3.32 M -3.3 -7.61 V -12.02" fill="none" stroke-miterlimit="10" stroke-linejoin="round" stroke-linecap="round" stroke-width="2.5" stroke="#0000ff" id="startLabel" vector-effect="non-scaling-stroke"></path><path d="m -5.13 -2.37 l -0.63 -0.63 l -0.95 -0.32 H -7.97 l -0.94 0.32 l -0.63 0.63 v 0.63 l 0.31 0.63 l 0.32 0.31 l 0.63 0.32 l 1.89 0.63 l 0.63 0.31 l 0.31 0.32 l 0.32 0.63 V 2.355 L -5.76 2.985 L -6.71 3.3 H -7.97 l -0.94 -0.315 l -0.63 -0.63 M -2.67 -3.32 V 3.3 M -4.87 -3.32 h 4.41 M 1.45 -3.32 L 0.82 -3 L 0.19 -2.37 L -0.13 -1.74 L -0.44 -0.8 V 0.78 l 0.31 0.94 l 0.32 0.635 l 0.63 0.63 L 1.45 3.3 h 1.26 l 0.63 -0.315 l 0.63 -0.63 l 0.32 -0.635 l 0.31 -0.94 v -1.58 l -0.31 -0.94 l -0.32 -0.63 l -0.63 -0.63 l -0.63 -0.32 H 1.45 M 5.07 -3.32 V 3.3 m 0 -6.62 h 2.84 l 0.94 0.32 l 0.32 0.32 l 0.32 0.62 V -1.11 L 9.17 -0.48 L 8.85 -0.16 L 7.91 0.15 H 5.07" fill="none" stroke-miterlimit="10" stroke-linejoin="round" stroke-linecap="round" stroke-width="2.5" stroke="#0000ff" id="stopLabel" vector-effect="non-scaling-stroke"></path><path d="M -2.25 -3.32 V 3.3 m 0 -6.62 h 2.84 l 0.94 0.32 l 0.32 0.32 l 0.32 0.62 V -1.42 L 1.85 -0.8 L 1.53 -0.48 L 0.59 -0.16 H -2.25 M -0.04 -0.16 L 2.17 3.3" fill="none" stroke-miterlimit="10" stroke-linejoin="round" stroke-linecap="round" stroke-width="2.5" stroke="#0000ff" id="rLabel" vector-effect="non-scaling-stroke"></path><path d="M 0.05 -0.975 L -0.05 0.975" fill="none" stroke-miterlimit="10" stroke-linejoin="round" stroke-linecap="round" stroke-width="2.5" stroke="#0000ff" id="collonLabel" vector-effect="non-scaling-stroke"></path><path d="M -5.96 -1.768 V 1.76 m 0 -2.52 l 0.76 -0.76 l 0.504 -0.248 h 0.752 l 0.512 0.248 l 0.248 0.76 V 1.76 m 0 -2.52 l 0.76 -0.76 l 0.496 -0.248 h 0.76 l 0.504 0.248 l 0.256 0.76 V 1.76M 0.44 -1.768 V 1.76 m 0 -2.52 l 0.76 -0.76 l 0.504 -0.248 h 0.752 l 0.512 0.248 l 0.248 0.76 V 1.76 m 0 -2.52 l 0.76 -0.76 l 0.496 -0.248 h 0.76 l 0.504 0.248 l 0.256 0.76 V 1.76" fill="none" stroke-miterlimit="10" stroke-linejoin="round" stroke-linecap="round" stroke-width="2.5" stroke="#0000ff" id="mmLabel" vector-effect="non-scaling-stroke"></path><path d="M -0.6 -1 V 1 M 0.6 -1 V 1" fill="none" stroke-miterlimit="10" stroke-linejoin="round" stroke-linecap="round" stroke-width="2.5" stroke="#0000ff" id="inchLabel" vector-effect="non-scaling-stroke"></path><path d="M -0.32 -3.32 L -1.26 -3 L -1.9 -2.06 L -2.21 -0.48 V 0.46 L -1.9 2.04 L -1.26 2.985 L -0.32 3.3 h 0.63 l 0.95 -0.315 l 0.62 -0.945 l 0.32 -1.58 v -0.94 l -0.32 -1.58 l -0.62 -0.94 l -0.95 -0.32 h -0.63 M  1 -2.5 l -2 4.9" fill="none" stroke-miterlimit="10" stroke-linejoin="round" stroke-linecap="round" stroke-width="2.5" stroke="#0000ff" id="zeroLabel" vector-effect="non-scaling-stroke"></path><path d="m -0.81 -2.06 l 0.62 -0.31 l 0.95 -0.95 V 3.3" fill="none" stroke-miterlimit="10" stroke-linejoin="round" stroke-linecap="round" stroke-width="2.5" stroke="#0000ff" id="oneLabel" vector-effect="non-scaling-stroke"></path><path d="m -1.9 -1.74 v -0.32 l 0.32 -0.62 l 0.32 -0.32 l 0.62 -0.32 h 1.26 l 0.64 0.32 l 0.31 0.32 l 0.31 0.62 V -1.42 L 1.57 -0.8 L 0.94 0.15 L -2.21 3.3 h 4.41" fill="none" stroke-miterlimit="10" stroke-linejoin="round" stroke-linecap="round" stroke-width="2.5" stroke="#0000ff" id="twoLabel" vector-effect="non-scaling-stroke"></path><path d="M -1.58 -3.32 H 1.88 L -0 -0.8 h 0.94 l 0.63 0.32 l 0.31 0.32 l 0.32 0.94 V 1.41 L 1.88 2.355 L 1.26 2.985 L 0.31 3.3 H -0.64 L -1.58 2.985 L -1.9 2.67 L -2.21 2.04" fill="none" stroke-miterlimit="10" stroke-linejoin="round" stroke-linecap="round" stroke-width="2.5" stroke="#0000ff" id="threeLabel" vector-effect="non-scaling-stroke"></path><path d="M 0.74 -3.32 L -2.41 1.1 H 2.32 M 0.74 -3.32 V 3.3" fill="none" stroke-miterlimit="10" stroke-linejoin="round" stroke-linecap="round" stroke-width="2.5" stroke="#0000ff" id="fourLabel" vector-effect="non-scaling-stroke"></path><path d="M 1.57 -3.32 H -1.58 l -0.32 2.84 l 0.32 -0.32 l 0.94 -0.31 h 0.95 l 0.95 0.31 l 0.62 0.64 l 0.32 0.94 V 1.41 L 1.88 2.355 L 1.26 2.985 L 0.31 3.3 H -0.64 L -1.58 2.985 L -1.9 2.67 L -2.21 2.04" fill="none" stroke-miterlimit="10" stroke-linejoin="round" stroke-linecap="round" stroke-width="2.5" stroke="#0000ff" id="fiveLabel" vector-effect="non-scaling-stroke"></path><path d="m 1.73 -2.37 l -0.31 -0.63 l -0.95 -0.32 H -0.15 L -1.1 -3 L -1.73 -2.06 L -2.05 -0.48 V 1.1 L -1.73 2.355 L -1.1 2.985 L -0.15 3.3 h 0.31 l 0.95 -0.315 l 0.62 -0.63 l 0.32 -0.945 v -0.31 l -0.32 -0.95 l -0.62 -0.63 l -0.95 -0.32 h -0.31 l -0.95 0.32 l -0.63 0.63 l -0.32 0.95" fill="none" stroke-miterlimit="10" stroke-linejoin="round" stroke-linecap="round" stroke-width="2.5" stroke="#0000ff" id="sixLabel" vector-effect="non-scaling-stroke"></path><path d="M 2.2 -3.32 L -0.95 3.3 M -2.21 -3.32 h 4.41" fill="none" stroke-miterlimit="10" stroke-linejoin="round" stroke-linecap="round" stroke-width="2.5" stroke="#0000ff" id="sevenLabel" vector-effect="non-scaling-stroke"></path><path d="m -0.64 -3.32 l -0.94 0.32 l -0.32 0.63 v 0.63 l 0.32 0.63 l 0.63 0.31 l 1.26 0.32 l 0.95 0.32 l 0.62 0.62 l 0.32 0.64 V 2.04 L 1.88 2.67 L 1.57 2.985 L 0.62 3.3 H -0.64 L -1.58 2.985 L -1.9 2.67 L -2.21 2.04 v -0.94 l 0.31 -0.64 l 0.64 -0.62 l 0.94 -0.32 l 1.26 -0.32 l 0.63 -0.31 l 0.31 -0.63 v -0.63 l -0.31 -0.63 l -0.95 -0.32 H -0.64" fill="none" stroke-miterlimit="10" stroke-linejoin="round" stroke-linecap="round" stroke-width="2.5" stroke="#0000ff" id="eightLabel" vector-effect="non-scaling-stroke"></path><path d="m 2.03 -1.11 l -0.31 0.95 l -0.63 0.62 l -0.94 0.32 h -0.32 l -0.94 -0.32 l -0.64 -0.62 l -0.31 -0.95 v -0.31 l 0.31 -0.95 l 0.64 -0.63 l 0.94 -0.32 h 0.32 l 0.94 0.32 l 0.63 0.63 l 0.31 1.26 V 0.46 L 1.72 2.04 L 1.09 2.985 L 0.15 3.3 h -0.64 l -0.94 -0.315 l -0.32 -0.63" fill="none" stroke-miterlimit="10" stroke-linejoin="round" stroke-linecap="round" stroke-width="2.5" stroke="#0000ff" id="nineLabel" vector-effect="non-scaling-stroke"></path></defs><g id="groupShape"><path d="
					M 0 0 
					H4.2 
					V1 
					A2 2 0 0 0  4  1.75 
					V2 
					A2 2 0 0 1  2 4 
					H1.75  
					A2 2 0 0 0 1  4.2 
					H0
					V0
					Z
				" fill="#000000" stroke-miterlimit="10" stroke-linejoin="round" stroke-linecap="round" stroke-width="0" stroke="#000000" id="pathShape"></path></g><g id="groupBorder"><path d="
					M 4  0  
					V 6 
					M 0 4
					H 6 
					" stroke-miterlimit="10" stroke-linejoin="round" stroke-linecap="round" stroke-width="0.4%" stroke="#0000ff" id="pathEdgeMark"></path></g><g id="groupStartStop"><path d="M 3.6  1 H 6 M 1 3.6   V 6" stroke-linejoin="round" stroke-linecap="round" stroke-width="0.4%" stroke="#0000ff" id="pathStartStopMark"></path><use xlink:href="#startLabel" transform="matrix(0.072,0,0,0.072,0.046399955749511716,0.037119964599609374)" x="18" y="70"></use><use xlink:href="#stopLabel" transform="matrix(0.072,0,0,0.072,-0.023200531005859375,-0.009279991149902344)" x="69" y="20"></use><use xlink:href="#rLabel" transform="matrix(0.072,0,0,0.072,-0.037119964599609374,-0.009279991149902344)" x="5" y="8"></use></g><g id="groupRadius"><path d="
					M 2  2.4
					L 2 1.6
					M 2.4 2  
					L 1.6 2
					M 2  2
					L 3.414213562373095 3.414213562373095 
					l -0.24 -0.12 
					l 0.124 -0.124 
					l 0.112 0.24 

				" stroke-miterlimit="10" stroke-linejoin="round" stroke-linecap="round" stroke-width="0.4%" stroke="#0000ff" id="pathCross"></path><use xlink:href="#twoLabel" transform="matrix(0.072,0,0,0.072,-0.004640106201171875,-0.009279769897460937)" x="12" y="8"></use><use xlink:href="#zeroLabel" transform="matrix(0.072,0,0,0.072,-0.004640106201171875,-0.009279991149902344)" x="17" y="8"></use><use xlink:href="#mmLabel" transform="matrix(0.072,0,0,0.072,0.014847808837890625,-0.0037120628356933595)" x="27.2" y="9.5"></use></g><g id="groupRef"><path d="M 4 4   H 4.2 L  4 3.6 Z" fill="#ff0000" stroke-miterlimit="10" stroke-linejoin="round" stroke-linecap="round" stroke-width="0" stroke="#ff0000" id="pathRefMark"></path></g><g id="groupDebug"></g></svg>